<svg id="visual" viewBox="0 0 900 600" width="900" height="600" xmlns="http://www.w3.org/2000/svg" xmlns:xlink="http://www.w3.org/1999/xlink" version="1.1"><rect x="0" y="0" width="900" height="600" fill="#d2ebff"></rect><path d="M0 367L15 374C30 381 60 395 90 398.7C120 402.3 150 395.7 180 394C210 392.3 240 395.7 270 390.8C300 386 330 373 360 368.2C390 363.3 420 366.7 450 369.7C480 372.7 510 375.3 540 382.7C570 390 600 402 630 414.2C660 426.3 690 438.7 720 439.7C750 440.7 780 430.3 810 428.2C840 426 870 432 885 435L900 438L900 601L885 601C870 601 840 601 810 601C780 601 750 601 720 601C690 601 660 601 630 601C600 601 570 601 540 601C510 601 480 601 450 601C420 601 390 601 360 601C330 601 300 601 270 601C240 601 210 601 180 601C150 601 120 601 90 601C60 601 30 601 15 601L0 601Z" fill="#69f1fa"></path><path d="M0 475L15 469C30 463 60 451 90 446.3C120 441.7 150 444.3 180 451.5C210 458.7 240 470.3 270 471.8C300 473.3 330 464.7 360 462.5C390 460.3 420 464.7 450 458C480 451.3 510 433.7 540 430.2C570 426.7 600 437.3 630 443.2C660 449 690 450 720 451.8C750 453.7 780 456.3 810 460.3C840 464.3 870 469.7 885 472.3L900 475L900 601L885 601C870 601 840 601 810 601C780 601 750 601 720 601C690 601 660 601 630 601C600 601 570 601 540 601C510 601 480 601 450 601C420 601 390 601 360 601C330 601 300 601 270 601C240 601 210 601 180 601C150 601 120 601 90 601C60 601 30 601 15 601L0 601Z" fill="#00caff"></path><path d="M0 498L15 491.5C30 485 60 472 90 464C120 456 150 453 180 453.7C210 454.3 240 458.7 270 468.2C300 477.7 330 492.3 360 498.5C390 504.7 420 502.3 450 503.7C480 505 510 510 540 500.3C570 490.7 600 466.3 630 458.8C660 451.3 690 460.7 720 466.2C750 471.7 780 473.3 810 478.7C840 484 870 493 885 497.5L900 502L900 601L885 601C870 601 840 601 810 601C780 601 750 601 720 601C690 601 660 601 630 601C600 601 570 601 540 601C510 601 480 601 450 601C420 601 390 601 360 601C330 601 300 601 270 601C240 601 210 601 180 601C150 601 120 601 90 601C60 601 30 601 15 601L0 601Z" fill="#009bfd"></path><path d="M0 488L15 492.8C30 497.7 60 507.3 90 513.7C120 520 150 523 180 522.8C210 522.7 240 519.3 270 514.8C300 510.3 330 504.7 360 502.3C390 500 420 501 450 498.5C480 496 510 490 540 493.7C570 497.3 600 510.7 630 511.7C660 512.7 690 501.3 720 502C750 502.7 780 515.3 810 520.8C840 526.3 870 524.7 885 523.8L900 523L900 601L885 601C870 601 840 601 810 601C780 601 750 601 720 601C690 601 660 601 630 601C600 601 570 601 540 601C510 601 480 601 450 601C420 601 390 601 360 601C330 601 300 601 270 601C240 601 210 601 180 601C150 601 120 601 90 601C60 601 30 601 15 601L0 601Z" fill="#0066e7"></path><path d="M0 558L15 560.5C30 563 60 568 90 564.3C120 560.7 150 548.3 180 543.7C210 539 240 542 270 544C300 546 330 547 360 543.7C390 540.3 420 532.7 450 534C480 535.3 510 545.7 540 547.7C570 549.7 600 543.3 630 538.7C660 534 690 531 720 529.3C750 527.7 780 527.3 810 530.3C840 533.3 870 539.7 885 542.8L900 546L900 601L885 601C870 601 840 601 810 601C780 601 750 601 720 601C690 601 660 601 630 601C600 601 570 601 540 601C510 601 480 601 450 601C420 601 390 601 360 601C330 601 300 601 270 601C240 601 210 601 180 601C150 601 120 601 90 601C60 601 30 601 15 601L0 601Z" fill="#2424c2"></path></svg>